<mxfile host="65bd71144e">
    <diagram id="rwZVFnb9-4XuviEcM_qo" name="페이지-1">
        <mxGraphModel dx="820" dy="497" grid="0" gridSize="10" guides="1" tooltips="1" connect="1" arrows="1" fold="1" page="1" pageScale="1" pageWidth="827" pageHeight="1169" background="none" math="0" shadow="0">
            <root>
                <mxCell id="0"/>
                <mxCell id="1" parent="0"/>
                <mxCell id="2" value="Button" style="whiteSpace=wrap;html=1;fontSize=18;" parent="1" vertex="1">
                    <mxGeometry x="110" y="400" width="120" height="60" as="geometry"/>
                </mxCell>
                <mxCell id="6" value="" style="edgeStyle=none;html=1;fontSize=18;" parent="1" source="4" target="2" edge="1">
                    <mxGeometry relative="1" as="geometry"/>
                </mxCell>
                <mxCell id="8" value="" style="edgeStyle=none;html=1;fontSize=18;" parent="1" source="4" target="7" edge="1">
                    <mxGeometry relative="1" as="geometry"/>
                </mxCell>
                <mxCell id="4" value="Listener" style="whiteSpace=wrap;html=1;fontSize=18;" parent="1" vertex="1">
                    <mxGeometry x="110" y="260" width="120" height="60" as="geometry"/>
                </mxCell>
                <mxCell id="14" value="" style="edgeStyle=none;html=1;fontSize=18;" parent="1" source="7" edge="1">
                    <mxGeometry relative="1" as="geometry">
                        <mxPoint x="370" y="90" as="targetPoint"/>
                    </mxGeometry>
                </mxCell>
                <mxCell id="7" value="Controller" style="whiteSpace=wrap;html=1;fontSize=18;" parent="1" vertex="1">
                    <mxGeometry x="310" y="260" width="120" height="60" as="geometry"/>
                </mxCell>
                <mxCell id="12" value="" style="edgeStyle=none;html=1;fontSize=18;" parent="1" source="9" target="11" edge="1">
                    <mxGeometry relative="1" as="geometry"/>
                </mxCell>
                <mxCell id="9" value="LightView" style="whiteSpace=wrap;html=1;fontSize=18;" parent="1" vertex="1">
                    <mxGeometry x="510" y="260" width="120" height="60" as="geometry"/>
                </mxCell>
                <mxCell id="11" value="Led" style="whiteSpace=wrap;html=1;fontSize=18;" parent="1" vertex="1">
                    <mxGeometry x="510" y="400" width="120" height="60" as="geometry"/>
                </mxCell>
                <mxCell id="15" style="edgeStyle=orthogonalEdgeStyle;html=1;exitX=1;exitY=0.5;exitDx=0;exitDy=0;entryX=0.5;entryY=0;entryDx=0;entryDy=0;fontSize=18;rounded=0;" parent="1" source="13" target="9" edge="1">
                    <mxGeometry relative="1" as="geometry"/>
                </mxCell>
                <mxCell id="13" value="StandLight&lt;br&gt;Service" style="whiteSpace=wrap;html=1;fontSize=18;" parent="1" vertex="1">
                    <mxGeometry x="310" y="20" width="130" height="60" as="geometry"/>
                </mxCell>
                <mxCell id="16" value="2개" style="text;html=1;strokeColor=none;fillColor=none;align=center;verticalAlign=middle;whiteSpace=wrap;rounded=0;" parent="1" vertex="1">
                    <mxGeometry x="160" y="380" width="60" height="30" as="geometry"/>
                </mxCell>
                <mxCell id="17" value="5개" style="text;html=1;strokeColor=none;fillColor=none;align=center;verticalAlign=middle;whiteSpace=wrap;rounded=0;" parent="1" vertex="1">
                    <mxGeometry x="520" y="380" width="60" height="30" as="geometry"/>
                </mxCell>
                <mxCell id="18" value="" style="edgeStyle=none;html=1;fontSize=18;rounded=0;entryX=0.5;entryY=0;entryDx=0;entryDy=0;exitX=0.5;exitY=1;exitDx=0;exitDy=0;" parent="1" source="25" target="19" edge="1">
                    <mxGeometry relative="1" as="geometry">
                        <mxPoint x="689.9957142857143" y="320" as="sourcePoint"/>
                        <mxPoint x="746" y="400" as="targetPoint"/>
                    </mxGeometry>
                </mxCell>
                <mxCell id="19" value="LCD" style="whiteSpace=wrap;html=1;fontSize=18;" parent="1" vertex="1">
                    <mxGeometry x="650" y="400" width="120" height="60" as="geometry"/>
                </mxCell>
                <mxCell id="21" value="ClockService" style="whiteSpace=wrap;html=1;fontSize=18;" parent="1" vertex="1">
                    <mxGeometry x="150" y="80" width="120" height="60" as="geometry"/>
                </mxCell>
                <mxCell id="23" value="" style="endArrow=classic;html=1;rounded=0;entryX=0.5;entryY=1;entryDx=0;entryDy=0;" parent="1" target="21" edge="1">
                    <mxGeometry width="50" height="50" relative="1" as="geometry">
                        <mxPoint x="360" y="190" as="sourcePoint"/>
                        <mxPoint x="340" y="140" as="targetPoint"/>
                        <Array as="points">
                            <mxPoint x="210" y="190"/>
                        </Array>
                    </mxGeometry>
                </mxCell>
                <mxCell id="24" value="" style="endArrow=classic;html=1;rounded=0;exitX=1;exitY=0.75;exitDx=0;exitDy=0;" parent="1" source="21" edge="1">
                    <mxGeometry width="50" height="50" relative="1" as="geometry">
                        <mxPoint x="380" y="130" as="sourcePoint"/>
                        <mxPoint x="700" y="260" as="targetPoint"/>
                        <Array as="points">
                            <mxPoint x="700" y="120"/>
                        </Array>
                    </mxGeometry>
                </mxCell>
                <mxCell id="25" value="ClockView" style="whiteSpace=wrap;html=1;fontSize=18;" parent="1" vertex="1">
                    <mxGeometry x="650" y="260" width="120" height="60" as="geometry"/>
                </mxCell>
                <mxCell id="26" value="ClockCheck" style="whiteSpace=wrap;html=1;fontSize=18;" parent="1" vertex="1">
                    <mxGeometry x="260" y="400" width="120" height="60" as="geometry"/>
                </mxCell>
                <mxCell id="27" value="" style="endArrow=classic;html=1;rounded=0;entryX=0.583;entryY=-0.057;entryDx=0;entryDy=0;entryPerimeter=0;" parent="1" target="26" edge="1">
                    <mxGeometry width="50" height="50" relative="1" as="geometry">
                        <mxPoint x="170" y="360" as="sourcePoint"/>
                        <mxPoint x="430" y="380" as="targetPoint"/>
                        <Array as="points">
                            <mxPoint x="330" y="360"/>
                        </Array>
                    </mxGeometry>
                </mxCell>
            </root>
        </mxGraphModel>
    </diagram>
    <diagram id="JMYObuIH1QSER_L9iBrt" name="페이지-2">
        <mxGraphModel dx="734" dy="405" grid="1" gridSize="10" guides="1" tooltips="1" connect="1" arrows="1" fold="1" page="1" pageScale="1" pageWidth="827" pageHeight="1169" math="0" shadow="0">
            <root>
                <mxCell id="Q607Y2rKxZQUFugG3BdK-0"/>
                <mxCell id="Q607Y2rKxZQUFugG3BdK-1" parent="Q607Y2rKxZQUFugG3BdK-0"/>
                <mxCell id="XUThxh31XiLSm-2z7mRA-0" value="Button" style="whiteSpace=wrap;html=1;fontSize=18;" parent="Q607Y2rKxZQUFugG3BdK-1" vertex="1">
                    <mxGeometry x="150" y="220" width="120" height="60" as="geometry"/>
                </mxCell>
                <mxCell id="XUThxh31XiLSm-2z7mRA-1" value="" style="edgeStyle=none;html=1;fontSize=18;" parent="Q607Y2rKxZQUFugG3BdK-1" source="XUThxh31XiLSm-2z7mRA-2" target="XUThxh31XiLSm-2z7mRA-0" edge="1">
                    <mxGeometry relative="1" as="geometry"/>
                </mxCell>
                <mxCell id="Xn4zP_rzqBb-KwKWEkbt-1" style="edgeStyle=orthogonalEdgeStyle;rounded=0;html=1;exitX=1;exitY=0.5;exitDx=0;exitDy=0;fontSize=18;" parent="Q607Y2rKxZQUFugG3BdK-1" source="XUThxh31XiLSm-2z7mRA-2" target="Xn4zP_rzqBb-KwKWEkbt-0" edge="1">
                    <mxGeometry relative="1" as="geometry"/>
                </mxCell>
                <mxCell id="XUThxh31XiLSm-2z7mRA-2" value="Listener" style="whiteSpace=wrap;html=1;fontSize=18;" parent="Q607Y2rKxZQUFugG3BdK-1" vertex="1">
                    <mxGeometry x="150" y="80" width="120" height="60" as="geometry"/>
                </mxCell>
                <mxCell id="XUThxh31XiLSm-2z7mRA-3" value="LED" style="whiteSpace=wrap;html=1;fontSize=18;" parent="Q607Y2rKxZQUFugG3BdK-1" vertex="1">
                    <mxGeometry x="540" y="220" width="120" height="60" as="geometry"/>
                </mxCell>
                <mxCell id="XUThxh31XiLSm-2z7mRA-6" value="이벤트 감시 기능" style="text;html=1;align=center;verticalAlign=middle;resizable=0;points=[];autosize=1;strokeColor=none;fillColor=none;fontSize=18;" parent="Q607Y2rKxZQUFugG3BdK-1" vertex="1">
                    <mxGeometry x="130" y="50" width="150" height="30" as="geometry"/>
                </mxCell>
                <mxCell id="z8fZrk0xQkMEeZACTWGU-1" style="edgeStyle=orthogonalEdgeStyle;rounded=0;html=1;exitX=1;exitY=0.5;exitDx=0;exitDy=0;entryX=0;entryY=0.5;entryDx=0;entryDy=0;fontSize=18;" parent="Q607Y2rKxZQUFugG3BdK-1" source="Xn4zP_rzqBb-KwKWEkbt-0" target="z8fZrk0xQkMEeZACTWGU-0" edge="1">
                    <mxGeometry relative="1" as="geometry"/>
                </mxCell>
                <mxCell id="Xn4zP_rzqBb-KwKWEkbt-0" value="controller" style="whiteSpace=wrap;html=1;fontSize=18;" parent="Q607Y2rKxZQUFugG3BdK-1" vertex="1">
                    <mxGeometry x="350" y="80" width="120" height="60" as="geometry"/>
                </mxCell>
                <mxCell id="z8fZrk0xQkMEeZACTWGU-2" style="edgeStyle=orthogonalEdgeStyle;rounded=0;html=1;exitX=0.5;exitY=1;exitDx=0;exitDy=0;fontSize=18;" parent="Q607Y2rKxZQUFugG3BdK-1" source="z8fZrk0xQkMEeZACTWGU-0" target="XUThxh31XiLSm-2z7mRA-3" edge="1">
                    <mxGeometry relative="1" as="geometry"/>
                </mxCell>
                <mxCell id="z8fZrk0xQkMEeZACTWGU-0" value="View" style="whiteSpace=wrap;html=1;fontSize=18;" parent="Q607Y2rKxZQUFugG3BdK-1" vertex="1">
                    <mxGeometry x="540" y="80" width="120" height="60" as="geometry"/>
                </mxCell>
            </root>
        </mxGraphModel>
    </diagram>
</mxfile>